<svg xmlns="http://www.w3.org/2000/svg" viewBox="70 220 670 375" fill="none">
  <path d="M0 0 C77 0 77 0 96.69921875 12.21484375 C100.81471061 16.78852159 104.51314367 21.02274599 108.13006592 25.90118408 C110.81443395 29.41094506 113.7565744 32.69309618 116.67773438 36.00585938 C121.71319003 41.77087994 126.50576629 47.67106256 131.1516571 53.75376892 C132.80316099 56.07095584 132.80316099 56.07095584 135 57 C139.83662773 73.00228026 142.20086453 91.3323907 135 107 C121.1751494 131.31700846 96.10165735 151.01839665 75.87726188 169.83715224 C67.75107415 177.40931857 59.77906482 185.13641845 51.81168866 192.87494397 C40.08321158 204.25808984 28.29992648 215.58306298 16.37760735 226.76327705 C15.09334891 227.96791206 13.81056745 229.1741238 12.52934074 230.3819828 C10.78763908 232.02234891 9.03985752 233.65592328 7.28970337 235.28726196 C6.77803293 235.7706521 6.26636249 236.25404224 5.73918688 236.75208056 C2.2297778 240 2.2297778 240 0 240 C0 160.8 0 81.6 0 0 Z M36 30 C33.18589784 33.25843408 32.09982208 35.28876767 31.5 39.5625 C32.0879511 43.60466383 33.09431172 45.17502528 36 48 C39.26934278 50.28853994 42.0698152 50.47162218 46 50 C49.00685874 48.38092222 51.2581079 46.94422632 53.375 44.25 C54.34047237 40.77429946 54.67442897 37.53372677 54 34 C51.5010691 30.51664178 49.48250878 29.21054929 45.5625 27.5 C41.1678022 26.88320031 39.59491244 27.44361782 36 30 Z" fill="#BA2024" transform="translate(197,333)"/>
  <path d="M0 0 C13.426875 -0.20625 26.85375 -0.4125 40.6875 -0.625 C44.88170654 -0.71604004 49.07591309 -0.80708008 53.3972168 -0.90087891 C92.01724818 -1.40991149 92.01724818 -1.40991149 103.50772095 8.31872559 C108.19635518 13.60116975 107.93091643 20.00242827 107.75 26.6875 C107.77903968 28.24791793 107.81728955 29.80819021 107.86450195 31.36816406 C107.94625822 34.46982644 107.97497256 37.56483202 107.96142578 40.66748047 C107.96365535 44.52814065 108.23219893 48.31699285 108.62109375 52.16015625 C108.76562988 53.72600464 108.76562988 53.72600464 108.91308594 55.32348633 C109.09017262 57.21204333 109.28608565 59.0989741 109.50488281 60.9831543 C109.7428433 64.67831014 109.82806194 66.9830163 107.43017578 69.92797852 C105.35985035 71.73734064 103.20718288 73.36181599 101 75 C99.84253879 76.07970591 98.70536925 77.18174684 97.59375 78.30859375 C97.078125 78.82744141 96.5625 79.34628906 96.03125 79.88085938 C95.5259375 80.39455078 95.020625 80.90824219 94.5 81.4375 C93.96375 81.97826172 93.4275 82.51902344 92.875 83.07617188 C91.58095964 84.38176617 90.29011826 85.69052996 89 87 C91.29652204 89.6035264 93.3897871 90.72963475 96.59765625 92.00390625 C110.55851189 98.28450992 110.55851189 98.28450992 113.13037109 104.91357422 C114.414638 111.50177405 114.42787221 118.10052714 114.11450195 124.78710938 C113.9985762 128.03995141 114.15355141 131.21910245 114.30859375 134.46875 C114.31474473 138.62407706 114.21992611 139.68262852 111.76953125 143.21875 C110.30580078 144.34796875 110.30580078 144.34796875 108.8125 145.5 C107.84957031 146.2734375 106.88664063 147.046875 105.89453125 147.84375 C104.93933594 148.5553125 103.98414063 149.266875 103 150 C101.96882805 151.04266022 101.96882805 151.04266022 100.91682434 152.10638428 C96.75529302 154.80806947 93.29694638 154.53182196 88.4362793 154.45410156 C86.97828399 154.45482477 86.97828399 154.45482477 85.49083424 154.45556259 C82.35158697 154.45258239 79.21329555 154.42214742 76.07421875 154.390625 C74.13334612 154.38474218 72.19246716 154.3806625 70.25158691 154.37841797 C63.06346102 154.35746587 55.87547107 154.30162082 48.6875 154.25 C24.5871875 154.12625 24.5871875 154.12625 0 154 C0 103.18 0 52.36 0 0 Z M42 19 C41.3194027 34.34240085 40.84399284 49.64196151 41 65 C47.95331168 64.36421098 54.33154837 62.11194343 60.9375 59.9375 C62.67870117 59.37192383 62.67870117 59.37192383 64.45507812 58.79492188 C67.30509014 57.86837476 70.15327951 56.93660127 73 56 C72.88204571 51.17601086 72.75781982 46.35224042 72.62768555 41.52856445 C72.58427703 39.88635697 72.54260642 38.24410261 72.50268555 36.60180664 C72.4451256 34.24611255 72.38139108 31.89065572 72.31640625 29.53515625 C72.29969376 28.79660904 72.28298126 28.05806183 72.26576233 27.2971344 C72.46451987 23.85699373 72.46451987 23.85699373 71 21 C68.85770616 20.77067714 66.70859857 20.60445445 64.55859375 20.46484375 C63.25341797 20.37783203 61.94824219 20.29082031 60.60351562 20.20117188 C59.21485003 20.11318209 57.82617806 20.02529278 56.4375 19.9375 C55.04489407 19.8461259 53.65231546 19.75433447 52.25976562 19.66210938 C48.84009122 19.43728649 45.42019221 19.21677941 42 19 Z M37 98 C35.59795589 109.64197343 35.93193085 121.29210655 36 133 C45.57 133 55.14 133 65 133 C67.6229157 125.13571857 67.6229157 125.13571857 69.75 117.1875 C70.01296875 116.10855469 70.2759375 115.02960938 70.546875 113.91796875 C71.12952327 110.3197971 71.12952327 110.3197971 70 107 C67.20173234 105.59705643 67.20173234 105.59705643 63.69921875 104.640625 C63.06643509 104.44652039 62.43365143 104.25241577 61.7816925 104.0524292 C60.44155209 103.64474287 59.09892971 103.24514091 57.75415039 102.85302734 C55.70092488 102.25391724 53.65605323 101.6313463 51.61132812 101.00390625 C44.43796747 98.75789761 44.43796747 98.75789761 37 98 Z" fill="#B91F24" transform="translate(484,333)"/>
  <path d="M0 0 C13.86 0 27.72 0 42 0 C42 19.47 42 38.94 42 59 C46.29 51.41 50.58 43.82 55 36 C57.62500608 31.54623181 60.25552353 27.10575044 62.9375 22.6875 C63.84725586 21.18026367 63.84725586 21.18026367 64.77539062 19.64257812 C65.95268778 17.69224408 67.13147326 15.74280738 68.31201172 13.79443359 C70.50461341 10.16462177 72.67320294 6.52064012 74.83813477 2.87426758 C76 1 76 1 77 0 C83.04832454 0.1666169 88.92381346 1.55812295 94.75390625 3.06640625 C95.54022934 3.26475571 96.32655243 3.46310516 97.13670349 3.66746521 C99.61342415 4.29356408 102.08795303 4.9278708 104.5625 5.5625 C106.25572045 5.9920844 107.94907878 6.42112576 109.64257812 6.84960938 C113.76333704 7.89347729 117.88215348 8.94470446 122 10 C122 14.10933702 121.85233587 14.70980185 119.6484375 17.84375 C119.13410156 18.58496094 118.61976563 19.32617188 118.08984375 20.08984375 C117.52394531 20.88519531 116.95804687 21.68054688 116.375 22.5 C115.79105469 23.33660156 115.20710938 24.17320312 114.60546875 25.03515625 C112.74551184 27.69620334 110.87315267 30.34823016 109 33 C107.8245725 34.67641881 106.65007434 36.35348965 105.4765625 38.03125 C104.90180176 38.85230225 104.32704102 39.67335449 103.73486328 40.51928711 C102.57840937 42.17292182 101.42313509 43.82738212 100.26904297 45.48266602 C97.26664368 49.78464274 94.23632101 54.06180556 91.15625 58.30859375 C89.93723102 60.01803739 88.71847176 61.72766626 87.5 63.4375 C86.91734375 64.22447266 86.3346875 65.01144531 85.734375 65.82226562 C82.73215512 69.8004125 82.73215512 69.8004125 82.2890625 74.51953125 C82.85367188 75.33808594 83.41828125 76.15664063 84 77 C84.59989746 77.88739868 84.59989746 77.88739868 85.21191406 78.79272461 C86.72216104 80.98016885 88.29159136 83.11496404 89.875 85.25 C91.06073045 86.8691808 92.24560731 88.488987 93.4296875 90.109375 C94.0287793 90.92728516 94.62787109 91.74519531 95.24511719 92.58789062 C97.87074108 96.196845 100.43720584 99.8462896 103 103.5 C107.77926379 110.30552485 112.63383024 117.05349133 117.54882812 123.76171875 C120.91462696 128.38595949 124.036082 133.10834382 127 138 C119.4571471 141.86229779 111.80416047 145.4302117 104.0625 148.875 C102.94037109 149.38546875 101.81824219 149.8959375 100.66210938 150.421875 C99.05239258 151.13730469 99.05239258 151.13730469 97.41015625 151.8671875 C96.44215088 152.30144043 95.47414551 152.73569336 94.47680664 153.18310547 C92 154 92 154 89 153 C87.80834961 151.16845703 87.80834961 151.16845703 86.65234375 148.7578125 C86.21688232 147.86562012 85.7814209 146.97342773 85.33276367 146.05419922 C84.87232666 145.08756348 84.41188965 144.12092773 83.9375 143.125 C82.95489361 141.10851222 81.97048413 139.09290217 80.984375 137.078125 C80.48744141 136.05912109 79.99050781 135.04011719 79.47851562 133.99023438 C77.29551527 129.57520987 75.0007001 125.2228566 72.6875 120.875 C69.02114208 113.96402668 65.46250205 107.01612257 62 100 C55.07 99.67 48.14 99.34 41 99 C41 117.15 41 135.3 41 154 C27.47 154 13.94 154 0 154 C0 103.18 0 52.36 0 0 Z" fill="#B91F24" transform="translate(352,333)"/>
  <path d="M0 0 C0 12.87 0 25.74 0 39 C-4.04867053 40.01216763 -7.95705815 40.42196727 -12.09765625 40.75390625 C-12.88716171 40.81907944 -13.67666718 40.88425262 -14.49009705 40.95140076 C-16.16179885 41.08834985 -17.83364323 41.22356789 -19.50561523 41.35717773 C-22.02964099 41.55986136 -24.55288443 41.77076901 -27.07617188 41.98242188 C-28.70829246 42.11508713 -30.34045288 42.24726346 -31.97265625 42.37890625 C-32.71266373 42.44139053 -33.4526712 42.50387482 -34.21510315 42.56825256 C-40.19843017 43.03599331 -45.94199225 43 -52 43 C-52 65.77 -52 88.54 -52 112 C-47.05 112 -42.1 112 -37 112 C-33.80600893 112.11499408 -30.62959204 112.24685264 -27.44140625 112.4375 C-26.72915894 112.47681641 -26.01691162 112.51613281 -25.28308105 112.55664062 C-22.70929786 112.69989642 -20.13591725 112.85031423 -17.5625 113 C-11.766875 113.33 -5.97125 113.66 0 114 C0 126.87 0 139.74 0 153 C-17.70203303 152.29014404 -35.30893991 150.77011781 -52.9510498 149.20825195 C-56.12441231 148.92839895 -59.29813748 148.65278797 -62.47187519 148.37722778 C-65.55274459 148.10938872 -68.63343552 147.83954281 -71.71407127 147.56903076 C-73.17356454 147.4409911 -74.6330988 147.31341774 -76.09267616 147.18634033 C-78.12486763 147.00897971 -80.15681723 146.82906389 -82.1887207 146.6484375 C-83.91358452 146.49640869 -83.91358452 146.49640869 -85.67329407 146.34130859 C-89.12631865 145.98704014 -92.56373645 145.49089479 -96 145 C-96 99.13 -96 53.26 -96 6 C-70.54457807 3.68587073 -70.54457807 3.68587073 -59.47265625 2.9296875 C-58.22979355 2.84373322 -56.98693085 2.75777893 -55.70640564 2.66921997 C-53.12328865 2.49155735 -50.54008207 2.31519248 -47.95678711 2.14013672 C-44.04305572 1.87367617 -40.1299466 1.59907413 -36.21679688 1.32421875 C-33.67711715 1.15054645 -31.13740466 0.97735253 -28.59765625 0.8046875 C-27.45353775 0.72346649 -26.30941925 0.64224548 -25.13063049 0.55856323 C-16.69584142 -0.00138939 -8.50388603 0 0 0 Z" fill="#BA2024" transform="translate(704,333)"/>
  <path d="M0 0 C0 28.05 0 56.1 0 85 C-28.05 85 -56.1 85 -85 85 C-85 84.34 -85 83.68 -85 83 C-83.52664089 81.54664516 -83.52664089 81.54664516 -81.49180603 79.86070251 C-77.15999623 76.17427022 -73.13626032 72.26433143 -69.13110352 68.22875977 C-68.39027023 67.48646622 -67.64943695 66.74417267 -66.88615417 65.97938538 C-65.29292458 64.38237639 -63.70085026 62.78421416 -62.10983467 61.18499947 C-59.59514248 58.65747012 -57.0772748 56.13314274 -54.55857849 53.60960388 C-49.22373165 48.26337793 -43.89284676 42.91321218 -38.5625 37.5625 C-32.36053335 31.33695647 -26.15696637 25.11302527 -19.94920158 18.89326286 C-17.46259392 16.40014936 -14.97900244 13.90405707 -12.49549866 11.40785217 C-10.98485719 9.89358146 -9.474077 8.37944913 -7.96313477 6.86547852 C-7.26864227 6.1658197 -6.57414978 5.46616089 -5.85861206 4.74530029 C-5.22932297 4.1159407 -4.60003387 3.48658112 -3.95167542 2.83815002 C-3.40253762 2.28679162 -2.85339983 1.73543322 -2.2876215 1.16736698 C-1 0 -1 0 0 0 Z" fill="#B92024" transform="translate(186,339)"/>
  <path d="M0 0 C16.17 0 32.34 0 49 0 C48.35789375 9.63159382 47.5902072 18.56477062 46 28 C40.39 27.34 34.78 26.68 29 26 C29.33 23.69 29.66 21.38 30 19 C25.71 19 21.42 19 17 19 C16.67 29.56 16.34 40.12 16 51 C20.29 51 24.58 51 29 51 C29 50.01 29 49.02 29 48 C26.36 48 23.72 48 21 48 C21 41.4 21 34.8 21 28 C29.25 28.33 37.5 28.66 46 29 C46 42.53 46 56.06 46 70 C30.16 70 14.32 70 -2 70 C-1.855625 62.719375 -1.71125 55.43875 -1.5625 47.9375 C-1.51939697 45.69316162 -1.47629395 43.44882324 -1.43188477 41.13647461 C-1.39360115 39.26676003 -1.3551198 37.39704948 -1.31640625 35.52734375 C-1.29993042 34.63019653 -1.28345459 33.73304932 -1.26647949 32.80871582 C-1.03422879 21.85955553 -0.47611847 10.95072492 0 0 Z" fill="#BA1F24" transform="translate(482,503)"/>
  <path d="M0 0 C2.76375 0.020625 5.5275 0.04125 8.375 0.0625 C12.335 9.6325 16.295 19.2025 20.375 29.0625 C20.705 19.4925 21.035 9.9225 21.375 0.0625 C26.985 0.0625 32.595 0.0625 38.375 0.0625 C39.28010943 22.73872382 39.49898364 45.36967905 39.375 68.0625 C36.65998752 68.0625 33.94499144 68.06207398 31.22998047 68.05859375 C29.0920098 68.06151897 26.95404925 68.08745632 24.81640625 68.125 C17.27854966 67.96135589 17.27854966 67.96135589 14.87109375 65.56640625 C13.7765104 63.43304183 13.07385031 61.35606724 12.375 59.0625 C11.63485421 57.22516625 10.88481739 55.39178638 10.125 53.5625 C9.5475 52.0775 8.97 50.5925 8.375 49.0625 C8.045 54.3425 7.715 59.6225 7.375 65.0625 C1.765 65.0625 -3.845 65.0625 -9.625 65.0625 C-10.60606636 57.72656777 -10.75565833 50.54786771 -10.72265625 43.15234375 C-10.7212413 41.94429581 -10.72182635 40.73624786 -10.71836853 39.49159241 C-10.71280395 35.66103563 -10.70025803 31.83053889 -10.6875 28 C-10.68248042 25.39127689 -10.67791832 22.78255286 -10.67382812 20.17382812 C-10.66284613 13.80336519 -10.64614354 7.43293689 -10.625 1.0625 C-7.31928083 -0.59035959 -3.629622 -0.0380118 0 0 Z" fill="#BA1F24" transform="translate(570.625,499.9375)"/>
  <path d="M0 0 C15.18 0 30.36 0 46 0 C46 17.16 46 34.32 46 52 C44.35 52 42.7 52 41 52 C41.433125 52.98742187 41.86625 53.97484375 42.3125 54.9921875 C42.87519045 56.28637554 43.43768005 57.58065093 44 58.875 C44.28617187 59.52597656 44.57234375 60.17695312 44.8671875 60.84765625 C47 65.7734375 47 65.7734375 47 68 C44.89983377 69.17441535 42.79541245 70.33964012 40.6875 71.5 C40.09259766 71.83386719 39.49769531 72.16773438 38.88476562 72.51171875 C36.04171156 74.06825114 34.29339012 75 31 75 C29.49414477 71.54418685 27.99631711 68.08495247 26.5 64.625 C26.07074219 63.64015625 25.64148438 62.6553125 25.19921875 61.640625 C24.79316406 60.69960938 24.38710938 59.75859375 23.96875 58.7890625 C23.59169922 57.91975098 23.21464844 57.05043945 22.82617188 56.15478516 C22 54 22 54 22 52 C21.34 52 20.68 52 20 52 C20.2475 53.85625 20.2475 53.85625 20.5 55.75 C21.1523002 61.5104539 21.06658056 67.20749161 21 73 C12.585 73.495 12.585 73.495 4 74 C2.75648919 61.12834026 1.76636783 48.24899428 1.00872803 35.34024048 C0.92097052 33.84549898 0.83170593 32.35084505 0.74078369 30.85629272 C0.61104781 28.70784833 0.48818224 26.559109 0.3671875 24.41015625 C0.29612793 23.17402588 0.22506836 21.93789551 0.15185547 20.66430664 C-0.07228724 13.77966617 0 6.8882882 0 0 Z M18 19 C17.979375 20.753125 17.95875 22.50625 17.9375 24.3125 C17.92589844 25.29863281 17.91429687 26.28476562 17.90234375 27.30078125 C17.87670138 30.09963849 17.87670138 30.09963849 19 33 C22.3 33 25.6 33 29 33 C29 28.38 29 23.76 29 19 C25.37 19 21.74 19 18 19 Z" fill="#BA1F24" transform="translate(407,498)"/>
  <path d="M0 0 C16.5 0 33 0 50 0 C50 12.375 50 12.375 49.54101562 17.48120117 C49.44091187 18.62155319 49.34080811 19.76190521 49.2376709 20.93681335 C49.07361755 22.72186028 49.07361755 22.72186028 48.90625 24.54296875 C48.79526978 25.79257889 48.68428955 27.04218903 48.56994629 28.32966614 C48.27749363 31.6128841 47.98089597 34.89569097 47.68218994 38.17834473 C47.37701915 41.54370887 47.07738129 44.90956559 46.77734375 48.27539062 C46.19079405 54.850815 45.59518522 61.42532893 45 68 C29.82 68 14.64 68 -1 68 C-0.67 45.56 -0.34 23.12 0 0 Z M17 20 C17 29.57 17 39.14 17 49 C20.96 49 24.92 49 29 49 C30.06166557 45.8150033 30.29951763 43.1468496 30.53515625 39.80078125 C30.62216797 38.59228516 30.70917969 37.38378906 30.79882812 36.13867188 C30.88583984 34.87603516 30.97285156 33.61339844 31.0625 32.3125 C31.15337891 31.03826172 31.24425781 29.76402344 31.33789062 28.45117188 C31.56205947 25.30100974 31.78261653 22.15063646 32 19 C26.79384188 18.89153837 22.25879451 19.34265069 17 20 Z" fill="#BA1F24" transform="translate(353,504)"/>
  <path d="M0 0 C0 33.33 0 66.66 0 101 C-3.80284438 99.09857781 -5.70444551 97.53406996 -8.64501953 94.56616211 C-9.55921661 93.64858627 -10.4734137 92.73101044 -11.41531372 91.78562927 C-12.40451178 90.7828988 -13.39367727 89.7801362 -14.3828125 88.77734375 C-15.40312474 87.75075843 -16.42395562 86.72468834 -17.44528198 85.69911194 C-20.12844483 83.00266562 -22.8059782 80.30070402 -25.48193359 77.59710693 C-29.77089904 73.26496505 -34.06665023 68.93957724 -38.36562729 64.61737251 C-39.86701406 63.1057499 -41.36494978 61.59076815 -42.86257935 60.07542419 C-43.77047211 59.16100052 -44.67836487 58.24657684 -45.61376953 57.30444336 C-46.41444855 56.49551132 -47.21512756 55.68657928 -48.04006958 54.85313416 C-49.86870778 52.94500298 -49.86870778 52.94500298 -52 52 C-50.46286911 48.35493174 -48.27662964 46.02889373 -45.49023438 43.24731445 C-44.80698845 42.56122101 -44.80698845 42.56122101 -44.10993958 41.86126709 C-42.60937884 40.35701416 -41.10176159 38.86006168 -39.59375 37.36328125 C-38.54728339 36.31800722 -37.50118669 35.27236274 -36.45544434 34.22636414 C-34.26618233 32.0386642 -32.07360735 29.85435934 -29.87841797 27.67260742 C-27.06201799 24.87322835 -24.25227724 22.06727996 -21.44475555 19.25899982 C-19.28667436 17.10119021 -17.12599938 14.94599412 -14.96443176 12.79167747 C-13.92719074 11.75762206 -12.89055729 10.72295682 -11.85453796 9.68767738 C-10.40879448 8.24409678 -8.95936852 6.80420699 -7.50976562 5.36450195 C-6.68528931 4.54383743 -5.86081299 3.72317291 -5.01135254 2.87763977 C-1.92878678 0 -1.92878678 0 0 0 Z" fill="#B92024" transform="translate(186,430)"/>
  <path d="M0 0 C0.99 0.33 1.98 0.66 3 1 C2.67 23.77 2.34 46.54 2 70 C-21.43 70 -44.86 70 -69 70 C-67.206254 66.41250801 -66.61476532 65.42627978 -63.73046875 63.09936523 C-57.2253507 57.58606586 -51.32492195 51.44792577 -45.3125 45.41015625 C-44.00135899 44.09714694 -42.68999463 42.78436063 -41.37841797 41.4717865 C-37.95022763 38.03980344 -34.52505278 34.60482651 -31.1005249 31.16918945 C-27.59619796 27.65457813 -24.08898917 24.14284511 -20.58203125 20.63085938 C-13.71855143 13.75669956 -6.85825799 6.87936931 0 0 Z" fill="#B91F24" transform="translate(268,250)"/>
  <path d="M0 0 C1.49421808 0.05370577 2.98594685 0.1808874 4.47265625 0.33984375 C5.37177734 0.43330078 6.27089844 0.52675781 7.19726562 0.62304688 C8.14279297 0.72681641 9.08832031 0.83058594 10.0625 0.9375 C11.01189453 1.03740234 11.96128906 1.13730469 12.93945312 1.24023438 C15.2935263 1.48865416 17.64694667 1.74212682 20 2 C30.0492295 21.67190567 34.04192874 37.78824878 34 60 C34.00322266 60.94311035 34.00644531 61.8862207 34.00976562 62.85791016 C34.01455384 64.90527043 34.00879634 66.95265303 34 69 C25.585 69.495 25.585 69.495 17 70 C16.1627035 64.97622101 15.9138047 60.99932751 16 56 C11.71 56 7.42 56 3 56 C3 60.29 3 64.58 3 69 C-1.06177373 69.81235475 -4.23350092 70.10732417 -8.3125 70.0625 C-9.38113281 70.05347656 -10.44976563 70.04445313 -11.55078125 70.03515625 C-12.35902344 70.02355469 -13.16726563 70.01195312 -14 70 C-15.55747924 44.12741285 -16.04301735 23.16407208 -1 1 C-0.67 0.67 -0.34 0.34 0 0 Z M8 23 C7.15675328 24.578076 6.32576082 26.1627042 5.5 27.75 C5.0359375 28.63171875 4.571875 29.5134375 4.09375 30.421875 C2.73963344 33.14696472 2.73963344 33.14696472 3 37 C6.96 37 10.92 37 15 37 C12.68635915 29.93199136 12.68635915 29.93199136 10 23 C9.34 23 8.68 23 8 23 Z" fill="#B91F24" transform="translate(629,500)"/>
  <path d="M0 0 C0 18.81 0 37.62 0 57 C-19.14 57 -38.28 57 -58 57 C-58 56.34 -58 55.68 -58 55 C-56.64413452 53.66661072 -56.64413452 53.66661072 -54.70068359 52.07397461 C-49.64226102 47.76890019 -44.99171186 43.0904008 -40.32588577 38.37048531 C-38.75648685 36.78346484 -37.18337177 35.20021259 -35.60922241 33.61790466 C-31.14056873 29.124976 -26.67785596 24.62617843 -22.21923828 20.12329102 C-19.47802838 17.35537885 -16.73203046 14.5922934 -13.98298264 11.83216667 C-12.93885667 10.78182469 -11.89663309 9.72958808 -10.85634232 8.67544746 C-9.41082494 7.21082148 -7.95935073 5.75236035 -6.50634766 4.29516602 C-5.27013168 3.0477639 -5.27013168 3.0477639 -4.00894165 1.77516174 C-2 0 -2 0 0 0 Z" fill="#BA2025" transform="translate(332,263)"/>
  <path d="M0 0 C5.61 0 11.22 0 17 0 C17 15.51 17 31.02 17 47 C24.26 46.67 31.52 46.34 39 46 C39.020625 49.114375 39.04125 52.22875 39.0625 55.4375 C39.071604 56.42032959 39.08070801 57.40315918 39.09008789 58.41577148 C39.09258545 59.18477783 39.09508301 59.95378418 39.09765625 60.74609375 C39.10289307 61.53685303 39.10812988 62.3276123 39.11352539 63.14233398 C39 65 39 65 38 66 C35.11768818 66.16022369 32.2560208 66.2596158 29.37109375 66.31640625 C28.60543091 66.33505737 27.83976807 66.3537085 27.05090332 66.3729248 C24.17989068 66.44142745 21.30868067 66.50144504 18.4375 66.5625 C12.023125 66.706875 5.60875 66.85125 -1 67 C-0.67 44.89 -0.34 22.78 0 0 Z" fill="#B91F24" transform="translate(667,501)"/>
  <path d="M0 0 C5.61 0.33 11.22 0.66 17 1 C17.15564795 22.01247272 16.56062233 42.99668481 16 64 C10.06 64 4.12 64 -2 64 C-1.88035678 57.45693951 -1.75604311 50.9139891 -1.62768555 44.37109375 C-1.58478288 42.15236731 -1.54308384 39.93361721 -1.50268555 37.71484375 C-1.27238482 25.11369802 -0.90779305 12.5717894 0 0 Z" fill="#B91F24" transform="translate(459,505)"/>
  <path d="M0 0 C5.61 0.33 11.22 0.66 17 1 C17.14357218 22.02534767 16.71616063 42.98835853 16 64 C10.39 64 4.78 64 -1 64 C-1.02520144 58.26066386 -1.04309006 52.5213617 -1.05493164 46.78198242 C-1.0598814 44.83991941 -1.06664289 42.89785995 -1.07543945 40.95581055 C-1.13575676 27.27087762 -0.78032342 13.66313763 0 0 Z" fill="#BA1F24" transform="translate(537,505)"/>
</svg>
